<?xml version="1.0" encoding="UTF-8"?>
<svg version="1.1" xmlns="http://www.w3.org/2000/svg" width="2000" height="356">
<path d="M0 0 C12.21 0 24.42 0 37 0 C37.33 37.62 37.66 75.24 38 114 C42.95 110.37 47.9 106.74 53 103 C58.54976175 100.22511912 63.39532395 98.0383846 69.25 96.375 C70.26126953 96.06949219 70.26126953 96.06949219 71.29296875 95.7578125 C91.29347693 89.94760901 115.24626758 88.86150665 135 96 C136.06734375 96.36222656 137.1346875 96.72445312 138.234375 97.09765625 C145.73330617 99.90499723 151.78562026 104.00412609 158 109 C158.78246094 109.59425781 159.56492187 110.18851562 160.37109375 110.80078125 C174.99141138 122.63386328 181.429726 141.03829818 183.53977966 159.2046814 C184.28448401 166.94120377 184.13109295 174.71140503 184.11352539 182.47509766 C184.11324292 184.23024494 184.11340243 185.98539234 184.1139679 187.74053955 C184.11425352 192.47947614 184.10839481 197.21838716 184.10139394 201.95731783 C184.09512125 206.91940969 184.09455351 211.8815022 184.09336853 216.84359741 C184.09026673 226.22850134 184.08206891 235.61339355 184.07201904 244.99829233 C184.06082209 255.68755747 184.05533844 266.37682318 184.05032361 277.06609273 C184.0398853 299.0440698 184.02155418 321.02203082 184 343 C171.46 343 158.92 343 146 343 C145.97812622 335.31009766 145.97812622 335.31009766 145.95581055 327.46484375 C145.90538892 310.49348535 145.83892856 293.52221743 145.76428509 276.5509491 C145.71943451 266.26509632 145.67999541 255.97927734 145.65356445 245.69335938 C145.63049706 236.72186977 145.59700241 227.75048807 145.55129844 218.77908421 C145.52748347 214.03450008 145.50867823 209.29002205 145.50238609 204.54537964 C145.49628169 200.06705283 145.47609197 195.58899708 145.44572449 191.11077118 C145.43702915 189.47915285 145.43320371 187.84749897 145.43499184 186.21585846 C145.44862921 168.00769577 143.68616662 150.05537844 131 136 C121.74964727 126.74964727 109.31157022 124.15539792 96.625 123.75 C75.38420681 124.40772948 54.34926083 130.65073917 39 146 C38.88985463 148.54158088 38.84503841 151.05657404 38.84178162 153.59913635 C38.83684364 154.40445059 38.83190566 155.20976483 38.82681805 156.03948253 C38.81136546 158.75882275 38.80306155 161.47813922 38.79467773 164.19750977 C38.7851053 166.13852144 38.7750956 168.079531 38.76467896 170.02053833 C38.73755503 175.30748712 38.71658615 180.59444492 38.69667697 185.88142514 C38.67486343 191.4001285 38.64745216 196.91880391 38.62062073 202.43748474 C38.570631 212.89577131 38.52571555 223.35407335 38.48259836 233.81239027 C38.43327954 245.71547026 38.37834162 257.6185222 38.32291877 269.52157509 C38.20900235 294.01435856 38.10292636 318.50716771 38 343 C25.46 343 12.92 343 0 343 C0 229.81 0 116.62 0 0 Z " fill="#101010" transform="translate(793,2)"/>
<path d="M0 0 C13.98550852 13.30132537 21.6719477 33.79749202 22.31054783 52.93807888 C22.31469321 54.2797937 22.31346931 55.62153253 22.30775452 56.96324158 C22.30903615 58.0808975 22.30903615 58.0808975 22.31034368 59.22113234 C22.31198181 61.70075059 22.30650459 64.18030016 22.30102539 66.65991211 C22.30074313 68.44417316 22.30090201 70.22843433 22.3014679 72.01269531 C22.30175436 76.84478154 22.29588194 81.67684285 22.28889394 86.50892329 C22.28263536 91.56312225 22.28205462 96.61732181 22.28086853 101.67152405 C22.2777626 111.23714919 22.26955916 120.80276288 22.25951904 130.36838299 C22.24833499 141.26071863 22.24284167 152.15305482 22.23782361 163.04539478 C22.22737593 185.44693641 22.20958893 207.84846708 22.1875 230.25 C14.9275 230.25 7.6675 230.25 0.1875 230.25 C-0.84375 228.0225 -1.875 225.795 -2.9375 223.5 C-6.10542674 216.68524772 -9.40662523 209.94946795 -12.8125 203.25 C-13.77027344 204.00023437 -14.72804688 204.75046875 -15.71484375 205.5234375 C-41.81689688 225.70164393 -68.85205651 236.66271882 -102.29296875 232.78125 C-119.61626341 230.36652292 -134.74534948 222.87851445 -146.1875 209.5 C-160.25116414 190.45174604 -164.05853741 167.1031007 -160.59765625 144 C-157.07561462 127.17830863 -147.98008412 113.58407285 -133.7734375 104.0703125 C-98.29478952 82.25890094 -56.0754191 82.82624842 -15.8125 83.25 C-16.23161592 51.31685478 -16.23161592 51.31685478 -30 23.875 C-49.51048616 9.10693478 -84.22885951 12.48632738 -107.25 15.4375 C-116.60720103 16.76554351 -125.70528533 19.0156224 -134.75219727 21.72509766 C-137.41502633 22.40350535 -140.09917896 22.82427726 -142.8125 23.25 C-143.85044709 19.19167606 -144.86482981 15.12781907 -145.875 11.0625 C-146.16955078 9.91201172 -146.46410156 8.76152344 -146.76757812 7.57617188 C-147.04150391 6.46435547 -147.31542969 5.35253906 -147.59765625 4.20703125 C-147.85426025 3.18585205 -148.11086426 2.16467285 -148.37524414 1.11254883 C-148.82680805 -1.8436694 -148.58845451 -3.88334313 -147.8125 -6.75 C-129.39212395 -12.32414654 -110.97436704 -16.69771435 -91.8125 -18.75 C-90.26755859 -18.91822266 -90.26755859 -18.91822266 -88.69140625 -19.08984375 C-57.87587198 -21.84325134 -24.6101068 -21.12786039 0 0 Z M-89.25 119 C-89.98460449 119.16846436 -90.71920898 119.33692871 -91.47607422 119.51049805 C-102.18097784 122.14045084 -113.32637241 127.0946265 -119.375 136.7421875 C-125.69626113 148.84596591 -124.84739257 161.60263043 -121.13671875 174.44140625 C-117.67242618 185.11653991 -110.47156181 193.45905126 -100.5625 198.625 C-89.70976859 203.78228972 -75.68005953 202.00105617 -64.5625 198.6328125 C-53.71876289 194.63418444 -43.65525764 189.22799443 -34.55664062 182.08032227 C-32.07850127 180.15626927 -29.5587995 178.45403012 -26.88671875 176.8125 C-21.63290114 173.3189379 -16.80924091 169.7667474 -15.02542114 163.47299194 C-13.9397218 155.64001648 -14.44393407 147.80458873 -14.875 139.9375 C-14.95035473 137.53992319 -15.01877596 135.14211789 -15.08007812 132.74414062 C-15.24425616 126.90772108 -15.49418837 121.07993888 -15.8125 115.25 C-21.87327936 115.19976721 -27.93393198 115.1638958 -33.99487305 115.14013672 C-36.04762895 115.13020997 -38.10037123 115.11666417 -40.15307617 115.09912109 C-56.59846755 114.96231089 -73.14576033 115.26940334 -89.25 119 Z " fill="#101010" transform="translate(469.8125,114.75)"/>
<path d="M0 0 C61.05 0 122.1 0 185 0 C185 10.89 185 21.78 185 33 C136.49 33 87.98 33 38 33 C38 68.31 38 103.62 38 140 C82.88 140 127.76 140 174 140 C174 151.22 174 162.44 174 174 C129.12 174 84.24 174 38 174 C38 229.77 38 285.54 38 343 C25.46 343 12.92 343 0 343 C0 229.81 0 116.62 0 0 Z " fill="#009832" transform="translate(1330,2)"/>
<path d="M0 0 C12.21 0 24.42 0 37 0 C37.029729 7.69775757 37.029729 7.69775757 37.06005859 15.55102539 C37.12705962 32.5343482 37.20460027 49.51761092 37.28752708 66.50086308 C37.33753403 76.79458714 37.38397779 87.08830372 37.421875 97.38208008 C37.45493614 106.3597638 37.49484412 115.33738728 37.54279006 124.31500429 C37.56791542 129.06345003 37.58973699 133.81185654 37.60334396 138.56035042 C37.61629224 143.04108277 37.63848038 147.52167957 37.66738319 152.0023365 C37.67636027 153.63599164 37.68212572 155.26966855 37.68421364 156.90334702 C37.5402634 183.67961044 37.5402634 183.67961044 49.52734375 206.58203125 C56.71819139 213.28370558 65.40998268 215.37441206 75.13671875 215.2109375 C87.53938932 214.29723462 98.77202323 211.30900906 110 206 C110.93972656 205.55696533 110.93972656 205.55696533 111.8984375 205.10498047 C121.47621084 200.49445539 129.9081518 194.90849993 138 188 C139.30449364 186.92195587 139.30449364 186.92195587 140.63534069 185.82213306 C143.55514171 182.33745898 143.70580615 179.80155644 143.63923645 175.45133972 C143.64759213 174.69977752 143.6559478 173.94821531 143.66455668 173.17387849 C143.68647336 170.65995998 143.67288465 168.14750422 143.65942383 165.63354492 C143.66787712 163.8298634 143.67852126 162.026191 143.69119263 160.22253418 C143.71936471 155.32823119 143.71686279 150.43436608 143.70889878 145.5400064 C143.70577619 140.42433551 143.73080083 135.30880468 143.75285339 130.19319153 C143.79032493 120.50706596 143.80244323 110.82108079 143.8054778 101.1348899 C143.81016525 90.10710465 143.84307852 79.07946034 143.87837565 68.05173719 C143.95034851 45.36780625 143.98310696 22.68404344 144 0 C156.54 0 169.08 0 182 0 C182 80.85 182 161.7 182 245 C174.74 245 167.48 245 160 245 C155.62489004 236.45811865 151.69245237 227.85141064 148 219 C144.24027137 219 143.7554183 219.85722548 141 222.3125 C119.24728756 240.19100672 92.11069043 249.67404112 64 248 C45.75436066 246.21340618 30.05026034 240.0284342 17.16796875 226.64453125 C2.6777784 208.96910987 -0.48701591 187.47824373 -0.34057617 165.40649414 C-0.33972781 163.59149693 -0.3402091 161.77649869 -0.34190369 159.96150208 C-0.34275693 155.08228811 -0.32524114 150.20329988 -0.30418181 145.32413793 C-0.28530188 140.20726906 -0.28365572 135.09039381 -0.28010559 129.97349548 C-0.27081814 120.30538658 -0.24624946 110.63738066 -0.21605712 100.9693169 C-0.18240982 89.95347372 -0.16600124 78.93762537 -0.15097082 67.92174351 C-0.11969662 45.28109228 -0.06472626 22.64058202 0 0 Z " fill="#101010" transform="translate(1060,100)"/>
<path d="M0 0 C13.86 0 27.72 0 42 0 C44.536875 4.805625 47.07375 9.61125 49.6875 14.5625 C55.4816534 25.50355204 61.38954336 36.35930684 67.53588867 47.10766602 C71.24371085 53.60815113 74.76160253 60.186902 78.20849609 66.82861328 C81.35755447 72.86190288 84.68439055 78.7799281 88.0625 84.6875 C93.39844475 94.02860231 98.48189049 103.48615324 103.5 113 C108.68016178 122.81505102 113.91751476 132.58531251 119.375 142.25 C119.90416016 143.18972656 120.43332031 144.12945312 120.97851562 145.09765625 C123.14795193 148.9106049 125.3093572 152.5267494 128 156 C128.57161865 154.96166016 128.57161865 154.96166016 129.15478516 153.90234375 C136.55117222 140.48409987 144.03211875 127.13326746 151.79736328 113.92382812 C155.95669651 106.83227599 160.00256043 99.68391745 164 92.5 C169.13625165 83.27065229 174.40212624 74.12762875 179.75 65.01953125 C183.92243985 57.89471767 187.98494461 50.71453512 192 43.5 C198.3396926 32.10861678 204.8713276 20.83651634 211.48291016 9.60107422 C213.3425695 6.41265924 215.16869459 3.20478446 217 0 C230.53 0 244.06 0 258 0 C256.3364805 4.15879876 254.46555757 7.8014745 252.17578125 11.609375 C251.60895882 12.56163971 251.60895882 12.56163971 251.03068542 13.53314209 C249.79474088 15.60750875 248.55367635 17.67876025 247.3125 19.75 C246.44502015 21.20360161 245.57783587 22.65737965 244.7109375 24.11132812 C242.145819 28.41066919 239.57409432 32.70602815 237 37 C236.47258209 37.87990601 236.47258209 37.87990601 235.93450928 38.77758789 C233.19318465 43.35011804 230.44944887 47.9211948 227.7019043 52.48999023 C224.26545543 58.20825944 220.84600196 63.93619926 217.4453125 69.67578125 C217.05268219 70.33844498 216.66005188 71.0011087 216.25552368 71.68385315 C215.45106197 73.04177184 214.64662904 74.39970758 213.84222412 75.75765991 C213.44054016 76.43575714 213.0388562 77.11385437 212.625 77.8125 C212.22347717 78.49035553 211.82195435 79.16821106 211.40826416 79.86660767 C205.44845371 89.9235822 199.41279403 99.93113971 193.3237915 109.91030884 C187.59036605 119.31307992 181.99458087 128.7904593 176.44802856 138.30444336 C169.11130051 150.88303264 161.57013387 163.33257558 153.97192383 175.75463867 C153.32118896 176.82560791 152.6704541 177.89657715 152 179 C151.51229409 179.64928309 151.02458818 180.29856619 150.52210331 180.96752453 C145.25715116 188.48666824 145.14589587 195.33828683 145.22705078 204.27197266 C145.21886616 205.79068566 145.20805582 207.30938641 145.19483948 208.82806396 C145.16655851 212.92263921 145.1747036 217.01640497 145.18970728 221.11101961 C145.19912495 225.4005436 145.17460206 229.68987503 145.15377808 233.9793396 C145.11951301 242.08933787 145.11548915 250.19905386 145.12250316 258.30911005 C145.12900762 267.54746181 145.10153586 276.78561662 145.07130075 286.02390981 C145.00989978 305.01602144 144.99535594 324.00778176 145 343 C132.79 343 120.58 343 108 343 C108.04825928 338.47627686 108.09651855 333.95255371 108.14624023 329.29174805 C108.29557027 314.24844861 108.36156796 299.20560383 108.38603115 284.1616087 C108.40283544 275.05119564 108.44695135 265.94254644 108.55883789 256.83276367 C108.65645784 248.87861138 108.69929848 240.92622198 108.68036038 232.97146446 C108.67216813 228.77107741 108.68866961 224.57454983 108.77114677 220.37488365 C109.18159577 198.3194682 106.48677594 183.37794573 93.93805122 164.907938 C90.73534178 160.10245073 87.92593722 155.07447327 85.0625 150.0625 C83.90864537 148.091044 82.75266466 146.12082948 81.59375 144.15234375 C77.6991738 137.50555738 73.87719996 130.81780045 70.0625 124.125 C64.89960332 115.0690207 59.71634268 106.0253517 54.5 97 C48.96760886 87.42624773 43.46969415 77.83330642 37.98974609 68.22949219 C33.18281971 59.80632462 28.35180105 51.39742179 23.5 43 C21.65696724 39.80623285 19.81442755 36.61218196 17.97216797 33.41796875 C16.57892838 31.00334209 15.18473399 28.58928392 13.78955078 26.17578125 C11.90674363 22.91785739 10.02860211 19.65728031 8.15332031 16.39501953 C7.43009168 15.13859593 6.70533553 13.88305029 5.97900391 12.62841797 C4.97289514 10.89000008 3.97262993 9.14820415 2.97265625 7.40625 C2.39781494 6.40916016 1.82297363 5.41207031 1.23071289 4.38476562 C0 2 0 2 0 0 Z " fill="#101010" transform="translate(21,2)"/>
<path d="M0 0 C35.55257517 -4.22958036 35.55257517 -4.22958036 45.25341797 2.13427734 C50.09232473 7.61487156 52.84086965 14.18124853 55.47967529 20.92881775 C58.32462072 28.17019167 62.30180604 34.61446374 66.37805176 41.2177124 C68.02337335 43.89927252 69.6246806 46.60580457 71.22555542 49.3140564 C74.54389486 54.92729161 77.90722637 60.51181934 81.31640625 66.0703125 C81.97366699 67.14249023 82.63092773 68.21466797 83.30810547 69.31933594 C84.53064876 71.30704077 85.75732165 73.29221359 86.98876953 75.27441406 C87.52228027 76.1403418 88.05579102 77.00626953 88.60546875 77.8984375 C89.07106201 78.64786621 89.53665527 79.39729492 90.01635742 80.16943359 C91 82 91 82 91 84 C93.92402172 81.41175111 95.6432048 78.43135768 97.58984375 75.06640625 C97.93016632 74.4815596 98.27048889 73.89671295 98.62112427 73.29414368 C99.35083349 72.03911871 100.07847149 70.78288761 100.80422974 69.52557373 C102.72226787 66.20310919 104.6554315 62.88944862 106.5859375 59.57421875 C106.96909622 58.91516541 107.35225494 58.25611206 107.74702454 57.5770874 C110.80773667 52.31604215 113.91750798 47.08613374 117.0625 41.875 C122.64256777 32.61872156 128.15397124 23.32232856 133.65844727 14.02099609 C134.30869873 12.92223145 134.9589502 11.8234668 135.62890625 10.69140625 C136.20713135 9.71373291 136.78535645 8.73605957 137.38110352 7.72875977 C137.91533936 6.82826904 138.4495752 5.92777832 139 5 C139.55349121 3.60152832 139.55349121 3.60152832 140.11816406 2.17480469 C142 0 142 0 143.88536072 -0.42469788 C146.43265239 -0.58226248 148.92929513 -0.56117274 151.48046875 -0.48828125 C152.87245232 -0.47766914 152.87245232 -0.47766914 154.29255676 -0.46684265 C157.2583558 -0.43883943 160.22227108 -0.37609033 163.1875 -0.3125 C165.19723837 -0.28742478 167.20700632 -0.26461026 169.21679688 -0.24414062 C174.14525776 -0.18899327 179.07230946 -0.10267997 184 0 C182.56594155 3.86140222 180.76853075 7.29785785 178.68359375 10.84765625 C178.3556633 11.40757263 178.02773285 11.96748901 177.68986511 12.54437256 C176.60950046 14.38598605 175.52373351 16.22434289 174.4375 18.0625 C173.67034754 19.36609271 172.90325878 20.66972291 172.13623047 21.97338867 C166.35143366 31.78751029 160.45615489 41.53185131 154.52368164 51.25732422 C148.26070847 61.53120083 142.098925 71.863856 135.99194336 82.23120117 C132.2004881 88.66027145 128.36666295 95.05178843 124.39453125 101.37109375 C123.67543848 102.526134 122.9568385 103.6814812 122.23876953 104.8371582 C120.90643658 106.97266496 119.55797845 109.09822585 118.19091797 111.21166992 C117.60584473 112.15502197 117.02077148 113.09837402 116.41796875 114.0703125 C115.64102661 115.28871826 115.64102661 115.28871826 114.84838867 116.53173828 C113.65490275 120.00400955 114.52957744 121.69382585 116 125 C116.95221099 126.74836009 117.96504062 128.46469737 119.02734375 130.1484375 C119.64472412 131.1369873 120.26210449 132.12553711 120.89819336 133.14404297 C121.57116455 134.21025879 122.24413574 135.27647461 122.9375 136.375 C124.40021391 138.71603475 125.85694451 141.06075911 127.3125 143.40625 C127.69337265 144.01926971 128.0742453 144.63228943 128.46665955 145.2638855 C132.89236653 152.40691112 137.16438684 159.6400544 141.4375 166.875 C147.39657768 176.95519508 153.40454042 187.0016716 159.5 197 C165.46185335 206.79193554 171.38998711 216.6033238 177.26318359 226.44873047 C178.125086 227.89236032 178.98851552 229.33507958 179.85351562 230.77685547 C181.05378447 232.77839244 182.24835384 234.78321803 183.44140625 236.7890625 C183.80299332 237.38973541 184.16458038 237.99040833 184.53712463 238.60928345 C187 242.77134246 187 242.77134246 187 245 C181.27109258 245.22304079 175.54472602 245.38603876 169.8125 245.49438477 C167.864461 245.53955622 165.91672569 245.6009115 163.96972656 245.67895508 C147.92096757 246.3059878 147.92096757 246.3059878 143.56958008 243.34765625 C141.93891295 240.96222319 140.99148904 238.7107469 140 236 C139.0304606 234.21480314 138.03853488 232.44162592 137.02734375 230.6796875 C135.99368953 228.7467691 134.96390219 226.81177907 133.9375 224.875 C128.53962514 214.80046786 122.98594198 204.8276558 117.33984375 194.890625 C113.16412965 187.54057304 109.04626222 180.15820308 104.93188477 172.77368164 C101.48005289 166.5928045 97.93870288 160.47710711 94.29833984 154.4050293 C93 152 93 152 93 150 C92.34 150 91.68 150 91 150 C90.66548828 151.20076172 90.66548828 151.20076172 90.32421875 152.42578125 C88.62941617 157.00024839 86.27850696 160.99005834 83.8125 165.1875 C82.722412 167.06811494 81.63394906 168.94967252 80.546875 170.83203125 C79.97001953 171.83057129 79.39316406 172.82911133 78.79882812 173.85791016 C75.66453382 179.33271576 72.61608779 184.85490129 69.5625 190.375 C64.33464861 199.81450996 59.06898991 209.23081616 53.73852539 218.61279297 C48.76538824 227.37646685 43.89452245 236.18985959 39 245 C25.14 245 11.28 245 -3 245 C-1.4219695 241.05492374 0.18381352 237.78328045 2.31640625 234.15234375 C2.80830193 233.31246918 2.80830193 233.31246918 3.31013489 232.45562744 C4.39049954 230.61401395 5.47626649 228.77565711 6.5625 226.9375 C7.32965246 225.63390729 8.09674122 224.33027709 8.86376953 223.02661133 C14.64990188 213.21022392 20.5460398 203.46330085 26.48071289 193.73608398 C32.29520041 184.19938445 38.00563084 174.6031321 43.68933105 164.98800659 C48.06120806 157.59309263 52.45902359 150.21682554 56.9453125 142.890625 C57.34236389 142.24138062 57.73941528 141.59213623 58.14849854 140.92321777 C60.0365642 137.8375924 61.9304432 134.75578952 63.83398438 131.6796875 C64.49978516 130.59429687 65.16558594 129.50890625 65.8515625 128.390625 C66.43760254 127.44219727 67.02364258 126.49376953 67.62744141 125.51660156 C69.39001027 122.41482151 69.39001027 122.41482151 70 119 C68.74936051 116.06604104 68.74936051 116.06604104 66.80078125 112.96875 C66.45493484 112.38554489 66.10908844 111.80233978 65.75276184 111.20146179 C64.6176274 109.29375381 63.46528246 107.39708631 62.3125 105.5 C61.51760633 104.17164408 60.72383165 102.84261795 59.93115234 101.51293945 C57.97848903 98.24341065 56.01254622 94.98213107 54.04144287 91.72369385 C52.64181004 89.40715919 51.25193972 87.08484515 49.86328125 84.76171875 C48.00444335 81.65405595 46.13884933 78.55058738 44.26953125 75.44921875 C41.70813456 71.19104898 39.16905516 66.92001407 36.63671875 62.64453125 C36.05309067 61.65920662 36.05309067 61.65920662 35.45767212 60.65397644 C34.65146712 59.29280705 33.84526394 57.93163658 33.0390625 56.57046509 C26.29074506 45.17915347 19.50033688 33.81516242 12.625 22.5 C12.27233063 21.91935791 11.91966125 21.33871582 11.55630493 20.74047852 C8.4204659 15.58027677 5.2802165 10.42861588 2.0234375 5.34375 C0 2 0 2 0 0 Z " fill="#009931" transform="translate(1786,100)"/>
<path d="M0 0 C0.93134766 0.19682373 1.86269531 0.39364746 2.82226562 0.59643555 C7.65443991 1.68005838 12.40923153 2.96295294 17.125 4.4765625 C18.03507813 4.76611816 18.94515625 5.05567383 19.8828125 5.35400391 C22 6.625 22 6.625 22.88061523 8.84594727 C23.02403947 12.18459366 22.51518302 14.97550852 21.78515625 18.23828125 C21.37426758 20.1090332 21.37426758 20.1090332 20.95507812 22.01757812 C20.65776811 23.32426792 20.36023932 24.63090796 20.0625 25.9375 C19.76796612 27.26346916 19.47433666 28.58963956 19.18164062 29.91601562 C18.46330049 33.15443426 17.7357888 36.39050923 17 39.625 C15.36196922 39.17842189 13.72395105 38.73179753 12.0859375 38.28515625 C11.07885742 38.01074707 10.07177734 37.73633789 9.03417969 37.45361328 C7.19569904 36.95153706 5.3576735 36.44778467 3.52050781 35.94091797 C-18.578753 29.84927413 -45.74594372 24.05821725 -67.66015625 33.80859375 C-74.3610526 37.6547993 -77.26567221 43.2868742 -79.6015625 50.4765625 C-80.86082013 57.26667719 -81.56544689 66.06162247 -77.9375 72.1875 C-76.55430509 74.01560856 -76.55430509 74.01560856 -75 75.625 C-74.55011719 76.12902344 -74.10023438 76.63304687 -73.63671875 77.15234375 C-61.95895988 88.52835175 -43.88176412 93.24584739 -29 98.625 C-2.08970867 108.43175754 24.74756865 119.11272665 37.75 146.6015625 C44.86230994 163.80446216 45.1287033 183.9002244 38.75 201.375 C30.79935148 220.44268905 17.11789586 233.20653379 -1.69213867 241.30004883 C-34.1787563 254.33578383 -75.57761749 251.0058553 -107.375 237.5625 C-112.79968761 235.23861174 -117.92230233 232.6327655 -123 229.625 C-122.04137348 225.94636813 -121.02710446 222.28507859 -120 218.625 C-119.81244141 217.94018555 -119.62488281 217.25537109 -119.43164062 216.54980469 C-118.82642579 214.3610423 -118.19684361 212.18047976 -117.5625 210 C-117.36954346 209.28908203 -117.17658691 208.57816406 -116.9777832 207.84570312 C-116.37890625 205.8359375 -116.37890625 205.8359375 -115 202.625 C-112.65198304 201.59586647 -111.38483462 201.52267325 -108.90380859 202.18237305 C-108.15953613 202.49730713 -107.41526367 202.81224121 -106.6484375 203.13671875 C-105.80555176 203.48081787 -104.96266602 203.82491699 -104.09423828 204.17944336 C-103.19688965 204.55335205 -102.29954102 204.92726074 -101.375 205.3125 C-91.72176459 209.1726196 -82.22345697 211.80452527 -72 213.625 C-70.38738281 213.91310547 -70.38738281 213.91310547 -68.7421875 214.20703125 C-47.15004008 216.61868028 -24.64871528 215.47757652 -7 201.625 C-0.10373411 195.24978531 3.46764607 187.0481556 4.23828125 177.75 C4.48918333 167.18570201 3.04013238 157.70663995 -3.875 149.375 C-18.85863392 134.29343383 -39.89312359 128.81672028 -59.5324707 122.37768555 C-80.58949564 115.45474221 -102.66458841 106.37046547 -113.875 85.8125 C-121.54702323 68.76945878 -120.43185273 49.83011379 -114.375 32.4375 C-107.84793846 17.5785455 -95.57910906 7.62994467 -80.93115234 1.36816406 C-55.63348015 -8.36712218 -25.93363494 -5.49771296 0 0 Z " fill="#101010" transform="translate(685,99.375)"/>
<path d="M0 0 C12.21 0 24.42 0 37 0 C37 113.19 37 226.38 37 343 C24.79 343 12.58 343 0 343 C0 229.81 0 116.62 0 0 Z " fill="#009831" transform="translate(1579,2)"/>
<path d="M0 0 C12.54 0 25.08 0 38 0 C38 80.85 38 161.7 38 245 C25.46 245 12.92 245 0 245 C0 164.15 0 83.3 0 0 Z " fill="#009832" transform="translate(1697,100)"/>
<path d="M0 0 C12.54 0 25.08 0 38 0 C38 14.85 38 29.7 38 45 C25.46 45 12.92 45 0 45 C0 30.15 0 15.3 0 0 Z " fill="#009831" transform="translate(1697,2)"/>
</svg>
